<?xml version="1.0" encoding="UTF-8" standalone="no"?>
<!-- Created with Inkscape (http://www.inkscape.org/) -->

<svg
   width="226.27417"
   height="153.31926"
   id="svg3225"
   version="1.1"
   inkscape:version="1.4.3 (0d15f75042, 2025-12-25)"
   sodipodi:docname="kabu-creative-logo.svg"
   xmlns:inkscape="http://www.inkscape.org/namespaces/inkscape"
   xmlns:sodipodi="http://sodipodi.sourceforge.net/DTD/sodipodi-0.dtd"
   xmlns="http://www.w3.org/2000/svg"
   xmlns:svg="http://www.w3.org/2000/svg"
   xmlns:rdf="http://www.w3.org/1999/02/22-rdf-syntax-ns#"
   xmlns:cc="http://creativecommons.org/ns#"
   xmlns:dc="http://purl.org/dc/elements/1.1/">
  <defs
     id="defs3227" />
  <sodipodi:namedview
     id="base"
     pagecolor="#ffffff"
     bordercolor="#666666"
     borderopacity="1.0"
     inkscape:pageopacity="0.0"
     inkscape:pageshadow="2"
     inkscape:zoom="1.979899"
     inkscape:cx="92.428957"
     inkscape:cy="55.053313"
     inkscape:document-units="px"
     inkscape:current-layer="layer1"
     showgrid="false"
     inkscape:window-width="1536"
     inkscape:window-height="891"
     inkscape:window-x="0"
     inkscape:window-y="0"
     inkscape:window-maximized="1"
     fit-margin-right="5"
     fit-margin-top="0"
     fit-margin-left="0"
     fit-margin-bottom="0"
     inkscape:showpageshadow="2"
     inkscape:pagecheckerboard="0"
     inkscape:deskcolor="#d1d1d1" />
  <metadata
     id="metadata3230">
    <rdf:RDF>
      <cc:Work
         rdf:about="">
        <dc:format>image/svg+xml</dc:format>
        <dc:type
           rdf:resource="http://purl.org/dc/dcmitype/StillImage" />
      </cc:Work>
    </rdf:RDF>
  </metadata>
  <g
     inkscape:label="Layer 1"
     inkscape:groupmode="layer"
     id="layer1"
     transform="translate(-38.890873,-830.85022)">
    <g
       transform="matrix(2.2221656,0,0,2.2221656,94.251656,-949.9143)"
       id="g15">
      <g
         id="g14"
         transform="translate(-44.000001,-146.10045)"
         inkscape:export-xdpi="63.157894"
         inkscape:export-ydpi="63.157894"
         inkscape:export-filename="/home/nicky/Desktop/linked-in-med.png">
        <g
           transform="translate(0,1.8164463)"
           id="g13">
          <g
             id="g4"
             style="font-style:normal;font-variant:normal;font-weight:normal;font-stretch:normal;font-size:46.758px;line-height:125%;font-family:'Helvetica Neue LT Std';-inkscape-font-specification:'Helvetica Neue LT Std';text-align:justify;letter-spacing:0px;word-spacing:0px;writing-mode:lr-tb;text-anchor:start;fill:#333333;fill-opacity:1;stroke:none">
            <path
               id="path1"
               style="font-family:Anton;-inkscape-font-specification:Anton;fill:#333333;fill-opacity:1"
               d="m 25.000002,990.13477 v -40.38813 h 8.082192 v 17.9452 l 3.92694,-11.80365 h 8.47032 l -5.136986,14.88584 6.52968,19.36074 h -8.69863 l -5.091324,-16.14156 v 16.14156 h -8.082192"
               inkscape:connector-curvature="0" />
            <path
               id="path2"
               style="font-family:Anton;-inkscape-font-specification:Anton;fill:#333333;fill-opacity:1"
               d="m 47.393186,980.31741 c -10e-7,-3.0289 0.44901,-5.3044 1.347032,-6.82648 0.776253,-1.30896 2.123284,-2.41246 4.041096,-3.3105 0.974118,-0.4566 3.150676,-1.2633 6.529681,-2.42009 -1.3e-5,-0.0152 -1.3e-5,-0.038 0,-0.0685 -1.3e-5,-0.48704 -0.0076,-0.88277 -0.02283,-1.18721 -1.3e-5,-0.30439 -0.0076,-0.64686 -0.02283,-1.0274 -1.3e-5,-0.38049 -0.0076,-0.68491 -0.02283,-0.91324 -0.01523,-0.22829 -0.03807,-0.47943 -0.06849,-0.75343 -0.03045,-0.27394 -0.06851,-0.47942 -0.114155,-0.61643 -0.03045,-0.15218 -0.08373,-0.312 -0.159817,-0.47946 -0.0609,-0.18262 -0.136999,-0.3196 -0.228311,-0.41096 -0.07612,-0.0913 -0.167439,-0.17501 -0.273972,-0.25114 -0.106557,-0.0761 -0.235933,-0.12934 -0.388128,-0.15981 -0.136998,-0.0304 -0.289205,-0.0456 -0.456621,-0.0457 -1.126342,3e-5 -1.689507,0.62408 -1.689498,1.87215 v 2.30594 h -7.945205 c -0.01522,-0.25873 -0.02283,-0.63164 -0.02283,-1.11873 -10e-7,-3.2572 0.768644,-5.63923 2.305937,-7.14611 1.552506,-1.52204 4.140022,-2.28307 7.762557,-2.28311 1.171981,4e-5 2.305922,0.16746 3.401826,0.50228 1.095875,0.31967 2.115661,0.80673 3.059361,1.46119 0.943665,0.6393 1.697089,1.52971 2.260274,2.67123 0.578366,1.14159 0.867559,2.45056 0.86758,3.92694 v 26.0959 h -8.127854 v -3.56165 c -0.273985,1.00457 -0.905644,1.91781 -1.894977,2.73973 -0.989356,0.82192 -2.054804,1.23287 -3.196347,1.23287 -0.821925,0 -1.544908,-0.0761 -2.16895,-0.22831 -0.624054,-0.13698 -1.248102,-0.42618 -1.872146,-0.86758 -0.624052,-0.4414 -1.141555,-1.02739 -1.552512,-1.75799 -0.39574,-0.74581 -0.722984,-1.73515 -0.981735,-2.96803 -0.243532,-1.24809 -0.365298,-2.71689 -0.365297,-4.4064 m 8.333334,-3.19634 c -9e-6,10e-6 -9e-6,1.33182 0,3.99543 -9e-6,2.02436 0.608818,3.03654 1.826484,3.03653 0.334844,10e-6 0.624037,-0.0913 0.86758,-0.27397 0.243519,-0.18264 0.426167,-0.41856 0.547945,-0.70776 0.121753,-0.28919 0.205467,-0.57077 0.251142,-0.84475 0.04565,-0.27397 0.06848,-0.55555 0.06849,-0.84475 v -9.01827 c -1.400316,0.56319 -2.343999,1.22529 -2.831051,1.9863 -0.487071,0.74583 -0.730602,1.63624 -0.730593,2.67124"
               inkscape:connector-curvature="0" />
            <path
               id="path3"
               style="font-family:Anton;-inkscape-font-specification:Anton;fill:#333333;fill-opacity:1"
               d="m 79.520549,986.4818 c -1e-5,0 -1e-5,1.21766 0,3.65297 h -8.401826 v -40.38813 h 8.401826 v 7.80822 c 1.369852,-1.40027 2.89192,-2.10043 4.56621,-2.10046 0.31962,3e-5 0.593592,0.008 0.821918,0.0228 0.243516,4e-5 0.57076,0.0305 0.981735,0.0913 0.426163,0.0609 0.791459,0.15225 1.095891,0.27398 0.319616,0.10658 0.684913,0.26639 1.09589,0.47945 0.41094,0.21312 0.768626,0.47187 1.07306,0.77626 0.304393,0.30444 0.616417,0.69257 0.936073,1.16438 0.319613,0.47187 0.578365,1.0046 0.776255,1.59817 0.197848,0.59364 0.357665,1.30901 0.479453,2.14612 0.136964,0.82195 0.205457,1.71997 0.205479,2.69407 v 16.50684 c -2.2e-5,1.20245 -0.106567,2.29073 -0.319635,3.26485 -0.213111,0.97412 -0.487084,1.78082 -0.821918,2.42009 -0.319655,0.62405 -0.715393,1.1796 -1.187214,1.66666 -0.471861,0.47185 -0.920872,0.82953 -1.347032,1.07306 -0.426198,0.24353 -0.890429,0.43379 -1.392694,0.57078 -0.5023,0.15221 -0.913259,0.24353 -1.232877,0.27397 -0.30443,0.0457 -0.608843,0.0685 -0.913242,0.0685 -2.207015,0 -3.812797,-1.35464 -4.817352,-4.06392 m 0,-21.11872 v 14.3379 c -1e-5,1.71994 0.167418,2.89194 0.502283,3.51598 0.350065,0.60883 0.867569,0.91325 1.552512,0.91324 0.669698,10e-6 1.118708,-0.28919 1.347032,-0.86758 0.228296,-0.57838 0.342452,-1.76559 0.342466,-3.56164 v -14.24658 c -1.4e-5,-1.4155 -0.144611,-2.36679 -0.43379,-2.85388 -0.289207,-0.50226 -0.722997,-0.7534 -1.30137,-0.75343 -0.593619,3e-5 -1.080681,0.24356 -1.461187,0.7306 -0.365308,0.48709 -0.547956,1.41555 -0.547946,2.78539"
               inkscape:connector-curvature="0" />
            <path
               id="path4"
               style="font-family:Anton;-inkscape-font-specification:Anton;fill:#333333;fill-opacity:1"
               d="M 106.87215,955.88819 H 115 v 34.24658 h -8.17351 v -3.65297 c -0.63929,1.61339 -1.37749,2.69406 -2.21462,3.24201 -0.82192,0.54794 -1.84171,0.82191 -3.05936,0.82191 -1.15678,0 -2.153732,-0.16742 -2.990864,-0.50228 -0.837144,-0.35007 -1.491633,-0.78386 -1.963471,-1.30137 -0.471844,-0.53272 -0.844751,-1.21765 -1.118721,-2.05479 -0.258754,-0.85236 -0.426182,-1.67427 -0.502283,-2.46576 -0.07611,-0.79147 -0.114157,-1.73515 -0.114155,-2.83105 v -25.50228 h 8.219174 v 23.85845 c -1e-5,1.73517 0.0989,2.89955 0.29681,3.49315 0.21308,0.57839 0.72297,0.86758 1.52968,0.86758 0.3044,0 0.57076,-0.0533 0.79908,-0.15982 0.24352,-0.12176 0.42617,-0.30441 0.54795,-0.54794 0.13697,-0.24353 0.24352,-0.47945 0.31963,-0.70777 0.0913,-0.2283 0.1522,-0.5251 0.18265,-0.89041 0.0304,-0.38051 0.0456,-0.67731 0.0457,-0.89041 0.0152,-0.21308 0.0228,-0.50988 0.0228,-0.89041 -2e-5,-0.12176 -2e-5,-0.21308 0,-0.27397 l 0.0457,-23.85845"
               inkscape:connector-curvature="0" />
          </g>
          <g
             id="g12"
             style="font-style:normal;font-variant:normal;font-weight:normal;font-stretch:normal;font-size:19.9514px;line-height:125%;font-family:'Helvetica Neue LT Std';-inkscape-font-specification:'Helvetica Neue LT Std';text-align:justify;letter-spacing:0px;word-spacing:0px;writing-mode:lr-tb;text-anchor:start;fill:#bd4137;fill-opacity:1;stroke:none">
            <path
               id="path5"
               style="font-family:Viga;-inkscape-font-specification:Viga;fill:#bd4137"
               d="m 33.060359,1004.9194 h 2.573729 c -1.2e-5,1.809 -0.452243,3.1989 -1.356694,4.1699 -0.904472,0.971 -2.18136,1.4564 -3.830667,1.4564 -3.631154,0 -5.446729,-2.1348 -5.446728,-6.4044 v -1.197 c -10e-7,-3.36517 0.931063,-5.47336 2.793194,-6.32463 0.731547,-0.34581 1.616057,-0.51873 2.653534,-0.51874 1.516298,1e-5 2.746632,0.41899 3.691007,1.25694 0.957655,0.82467 1.436488,2.02175 1.4365,3.59123 h -2.593681 c -0.146318,-0.7847 -0.405686,-1.37662 -0.778104,-1.77566 -0.372433,-0.39901 -0.957673,-0.59853 -1.755722,-0.59854 -0.931069,1e-5 -1.622717,0.29263 -2.074944,0.87786 -0.319226,0.41234 -0.505438,1.11734 -0.558638,2.11484 -0.02661,0.3192 -0.03991,0.7515 -0.0399,1.2969 v 1.2369 c -4e-6,1.5296 0.212811,2.5738 0.638444,3.1324 0.438926,0.5586 1.117272,0.838 2.035041,0.838 0.931058,0 1.569502,-0.2528 1.915334,-0.7582 0.359116,-0.5187 0.591882,-1.3168 0.698298,-2.3942"
               inkscape:connector-curvature="0" />
            <path
               id="path6"
               style="font-family:Viga;-inkscape-font-specification:Viga;fill:#bd4137"
               d="m 48.750565,1010.426 h -3.212173 l -2.773243,-5.2671 h -1.995138 v 5.2671 h -2.773243 v -11.1528 c -2e-6,-1.06406 0.246065,-1.83551 0.738201,-2.31436 0.492132,-0.49212 1.316788,-0.73819 2.473972,-0.7382 h 2.354264 c 1.409889,10e-6 2.527165,0.43229 3.351832,1.29684 0.837947,0.85127 1.256926,1.93529 1.256938,3.25212 -1.2e-5,0.9576 -0.252729,1.7889 -0.758153,2.4939 -0.492145,0.6916 -1.103987,1.1705 -1.835527,1.4365 l 3.17227,5.726 m -5.366923,-7.5815 c 0.585233,0 1.064066,-0.1995 1.4365,-0.5985 0.385718,-0.4124 0.578581,-0.9178 0.57859,-1.5163 -9e-6,-0.6119 -0.186222,-1.10401 -0.558639,-1.47645 -0.359133,-0.37241 -0.844616,-0.55863 -1.456451,-0.55864 h -1.376645 c -0.824662,10e-6 -1.236991,0.41899 -1.236986,1.25694 v 2.89295 h 2.613631"
               inkscape:connector-curvature="0" />
            <path
               id="path7"
               style="font-family:Viga;-inkscape-font-specification:Viga;fill:#bd4137"
               d="m 60.408097,1010.426 h -5.02775 c -1.596115,0 -2.720042,-0.2726 -3.371784,-0.818 -0.638446,-0.5586 -0.957668,-1.5362 -0.957666,-2.9328 v -10.45456 h 9.3572 v 2.47397 h -6.583958 v 3.33189 h 4.60877 l -0.199513,2.474 h -4.409257 v 1.9752 c -4e-6,0.5586 0.126355,0.9443 0.379077,1.1571 0.252712,0.2128 0.711594,0.3193 1.376645,0.3193 h 4.828236 v 2.4739"
               inkscape:connector-curvature="0" />
            <path
               id="path8"
               style="font-family:Viga;-inkscape-font-specification:Viga;fill:#bd4137"
               d="m 74.155053,1010.426 h -2.892951 l -0.798055,-2.454 h -4.768381 l -0.778104,2.454 h -2.892951 l 4.548916,-13.00828 c 0.199508,-0.45222 0.418973,-0.76479 0.658395,-0.93771 0.252712,-0.1729 0.558633,-0.25936 0.917764,-0.25937 0.359118,10e-6 0.645088,0.0798 0.85791,0.23942 0.226108,0.15962 0.425621,0.47884 0.598541,0.95766 l 4.548916,13.00828 m -4.329451,-4.7883 -1.675916,-5.6263 -1.755722,5.6263 h 3.431638"
               inkscape:connector-curvature="0" />
            <path
               id="path9"
               style="font-family:Viga;-inkscape-font-specification:Viga;fill:#bd4137"
               d="M 84.359324,998.69461 H 80.54861 v 11.73139 h -2.773243 v -11.73139 h -3.790763 v -2.47397 h 10.37472 v 2.47397"
               inkscape:connector-curvature="0" />
            <path
               id="path10"
               style="font-family:Viga;-inkscape-font-specification:Viga;fill:#bd4137"
               d="M 89.770312,1010.426 H 86.99707 v -14.20536 h 2.773242 v 14.20536"
               inkscape:connector-curvature="0" />
            <path
               id="path11"
               style="font-family:Viga;-inkscape-font-specification:Viga;fill:#bd4137"
               d="m 103.44866,996.22064 -4.469112,13.40736 c -0.239423,0.6118 -0.665053,0.9177 -1.276889,0.9177 -0.638449,0 -1.077379,-0.3059 -1.316791,-0.9177 l -4.409256,-13.40736 h 2.872999 l 2.853048,9.25746 2.853051,-9.25746 h 2.89295"
               inkscape:connector-curvature="0" />
            <path
               id="path12"
               style="font-family:Viga;-inkscape-font-specification:Viga;fill:#bd4137"
               d="m 115,1010.426 h -5.02775 c -1.59612,0 -2.72004,-0.2726 -3.37178,-0.818 -0.63845,-0.5586 -0.95767,-1.5362 -0.95767,-2.9328 V 996.22064 H 115 v 2.47397 h -6.58396 v 3.33189 h 4.60877 l -0.19951,2.474 h -4.40926 v 1.9752 c 0,0.5586 0.12636,0.9443 0.37908,1.1571 0.25271,0.2128 0.71159,0.3193 1.37664,0.3193 H 115 v 2.4739"
               inkscape:connector-curvature="0" />
          </g>
        </g>
      </g>
    </g>
  </g>
</svg>
